<?xml version="1.0" encoding="UTF-8" standalone="no"?>
<!-- Created with Inkscape (http://www.inkscape.org/) -->

<svg
   version="1.1"
   id="svg1"
   width="973.78802"
   height="105.05185"
   viewBox="0 0 973.78802 105.05185"
   sodipodi:docname="anxiousloomers_txt-logo.svg"
   inkscape:version="1.3.2 (091e20e, 2023-11-25)"
   xmlns:inkscape="http://www.inkscape.org/namespaces/inkscape"
   xmlns:sodipodi="http://sodipodi.sourceforge.net/DTD/sodipodi-0.dtd"
   xmlns="http://www.w3.org/2000/svg"
   xmlns:svg="http://www.w3.org/2000/svg">
  <sodipodi:namedview
     id="namedview1"
     pagecolor="#ffffff"
     bordercolor="#000000"
     borderopacity="0.25"
     inkscape:showpageshadow="2"
     inkscape:pageopacity="0.0"
     inkscape:pagecheckerboard="0"
     inkscape:deskcolor="#d1d1d1"
     inkscape:zoom="0.31937135"
     inkscape:cx="485.32844"
     inkscape:cy="51.663995"
     inkscape:window-width="1712"
     inkscape:window-height="1040"
     inkscape:window-x="0"
     inkscape:window-y="39"
     inkscape:window-maximized="0"
     inkscape:current-layer="svg1" />
  <defs
     id="defs1" />
  <g
     id="g1"
     transform="translate(-287.9389,-442.69453)"
     style="fill:#3a2ffc;fill-opacity:1">
    <path
       style="fill:#3a2ffc;fill-opacity:1"
       d="m 563.27135,545.89613 c -7.27572,-2.58846 -11.71087,-6.31325 -14.72907,-12.36998 l -2.60338,-5.22431 0.0439,-32.55365 c 0.0471,-34.95718 0.27998,-36.85629 5.33066,-43.47808 1.43486,-1.88119 5.20007,-4.69278 8.36714,-6.24797 5.38757,-2.64557 6.56306,-2.82761 18.2583,-2.82761 12.0079,0 12.71512,0.1181 17.96444,3 6.96358,3.82303 11.53962,9.79409 13.03826,17.01301 0.77105,3.71414 1.03877,15.4017 0.80793,35.2709 -0.30069,25.88114 -0.5757,30.2323 -2.13099,33.71609 -2.39114,5.35608 -6.14593,9.1469 -12.17964,12.29649 -4.34089,2.26594 -6.45004,2.65175 -16,2.92677 -8.73243,0.25147 -12.06525,-0.0622 -16.16755,-1.52166 z m 22.90177,-17.11822 3.26578,-2.91662 0.29356,-28.51124 c 0.31964,-31.04409 -0.067,-33.8229 -5.17152,-37.16751 -3.39921,-2.22725 -10.79091,-2.26261 -14.14086,-0.0676 -5.03157,3.29677 -5.48118,6.1743 -5.48118,35.07959 0,28.50159 0.45529,31.60421 5.11687,34.86931 1.43627,1.006 4.34382,1.63069 7.58986,1.63069 4.39978,0 5.79669,-0.47778 8.52749,-2.91662 z m 49.64806,17.58987 c -7.26675,-2.7049 -10.70261,-5.6073 -13.58405,-11.475 l -2.79823,-5.69825 -0.29058,-42.7867 -0.29057,-42.7867 9.55493,0.2867 9.55493,0.2867 0.0602,35 c 0.0725,42.16794 0.3864,46.64176 3.50903,50.01113 2.5323,2.7324 8.77069,3.43234 12.5525,1.40838 4.55242,-2.43641 4.84956,-5.33986 4.84956,-47.38739 v -39.53212 h 9.5 9.5 v 41.63398 c 0,28.7041 -0.36042,42.83697 -1.16056,45.50758 -1.5111,5.04361 -6.98419,11.36783 -12.19689,14.09363 -5.21034,2.72458 -22.92446,3.61031 -28.76027,1.43806 z m 68.02684,-0.17585 c -5.93606,-1.89442 -13.23541,-8.35636 -15.31762,-13.56031 -0.9013,-2.25259 -1.91721,-6.75994 -2.25757,-10.01635 l -0.61884,-5.92074 h 10.14245 10.14246 v 3.98422 c 0,13.59008 23.06538,15.84512 25.56897,2.4998 0.86347,-4.60268 -1.30868,-11.43845 -4.61661,-14.52852 -1.58046,-1.47637 -6.82879,-4.36473 -11.66296,-6.41859 -21.42712,-9.10355 -27.07394,-14.86121 -28.06108,-28.61187 -0.70186,-9.77677 1.74734,-17.18741 7.61962,-23.05491 5.74837,-5.7437 12.14502,-7.87013 23.67463,-7.87013 17.76462,0 27.72275,7.05639 30.40057,21.54203 1.88042,10.17215 2.44486,9.57055 -8.67314,9.24418 l -9.75,-0.28621 -0.55477,-4 c -0.77474,-5.58599 -2.31858,-7.97475 -6.40823,-9.91542 -4.60995,-2.18756 -10.07803,-1.1974 -13.76868,2.49325 -2.27755,2.27756 -2.76832,3.64445 -2.76832,7.71039 0,7.3022 2.29114,9.53486 16.84204,16.41219 15.76063,7.4491 20.22187,10.66797 23.75616,17.14051 2.37475,4.34903 2.88198,6.61758 3.23042,14.44803 0.64885,14.58139 -3.48546,22.59857 -14.07134,27.28685 -4.32793,1.91675 -7.29018,2.3777 -16.75728,2.60754 -8.02774,0.19489 -12.88615,-0.16318 -16.09088,-1.18594 z m 135.42333,-0.34847 c -7.10311,-2.45465 -11.69797,-6.22183 -14.48008,-11.87174 -2.29177,-4.65413 -2.36066,-5.57575 -2.67419,-35.77719 -0.39324,-37.8801 -0.11228,-39.69633 7.28514,-47.09376 3.89296,-3.89296 6.61166,-5.64799 10.57031,-6.82359 6.74243,-2.00228 21.00711,-2.05669 27.57855,-0.10518 6.01056,1.78494 12.662,7.2513 15.67231,12.87998 2.13577,3.99345 2.22637,5.30643 2.51724,36.47876 0.26212,28.09082 0.0822,32.99713 -1.37033,37.37033 -2.18156,6.56806 -7.66848,11.99017 -14.85411,14.67866 -7.41719,2.77512 -22.59458,2.90747 -30.24484,0.26373 z m 23.47331,-16.96748 c 4.08624,-3.81712 4.41301,-6.8388 4.02229,-37.19474 -0.34993,-27.18651 -0.48845,-27.95926 -5.66153,-31.58263 -2.64079,-1.84968 -9.1679,-2.06036 -13.11969,-0.42348 -6.03643,2.50038 -6.5113,4.74897 -6.86749,32.5194 -0.37816,29.48285 -0.0315,32.80168 3.82939,36.66258 2.48298,2.48298 3.58332,2.83742 8.80859,2.83742 5.16888,0 6.37657,-0.3787 8.98844,-2.81855 z m 52.69424,17.47826 c -9.30471,-3.04856 -13.68591,-6.86792 -16.49712,-14.38155 -1.85354,-4.95405 -2.00124,-7.75497 -1.98092,-37.56567 0.0206,-30.26014 0.14561,-32.48523 2.06207,-36.71249 2.65753,-5.8619 5.30332,-8.60804 11.41597,-11.84899 4.67278,-2.47751 5.85078,-2.65042 18,-2.64192 12.18714,0.009 13.32194,0.17831 18.14882,2.71557 5.92601,3.11502 10.96038,8.72307 12.36616,13.77534 1.58458,5.69486 1.26937,68.38569 -0.36344,72.28212 -2.12947,5.08162 -6.48294,9.59374 -12.0318,12.47029 -4.48267,2.32382 -6.4885,2.68915 -16.11974,2.93596 -7.10445,0.18206 -12.41656,-0.18223 -15,-1.02866 z m 21.73422,-17.57636 3.26578,-2.91665 0.29312,-29.04962 c 0.25015,-24.79081 0.0638,-29.493 -1.27081,-32.07393 -4.43262,-8.57175 -17.8415,-8.53966 -22.25757,0.0532 -1.87466,3.64776 -1.76261,55.77627 0.12963,60.30503 1.99401,4.77234 5.12483,6.59857 11.31236,6.59857 4.3998,0 5.79668,-0.47777 8.52749,-2.91665 z m 277.93908,17.43261 c -10.5705,-3.29877 -17.0092,-11.60263 -17.9345,-23.12963 l -0.5126,-6.38633 h 9.549 9.549 l 0.704,4.25 c 0.3872,2.3375 1.1151,5.03284 1.6176,5.98965 1.4403,2.74297 6.777,4.99029 12.0388,5.06967 8.5359,0.12877 13.196,-5.71214 11.8154,-14.80916 -1.0684,-7.03984 -3.256,-9.28344 -13.8437,-14.19796 -20.2665,-9.40717 -23.872,-11.86696 -27.3352,-18.64893 -2.6407,-5.17155 -3.5021,-15.64601 -1.8522,-22.52362 2.8943,-12.06464 11.9236,-18.27009 27.5806,-18.95488 12.2077,-0.53392 18.9192,1.38469 24.8648,7.108 4.8257,4.64533 7.5857,11.70345 7.5857,19.39873 v 4.3185 h -8.8865 -8.8864 l -0.6643,-4.42962 c -0.8646,-5.76568 -3.7165,-9.26541 -8.628,-10.58794 -3.3134,-0.89221 -4.6782,-0.74718 -8.3807,0.8906 -3.6981,1.63587 -4.6232,2.62566 -5.6467,6.04167 -1.5376,5.13208 0.01,11.08524 3.6086,13.91924 1.3574,1.06769 6.859,3.85922 12.226,6.2034 19.2702,8.4169 24.885,13.88631 27.2786,26.57204 1.5884,8.41805 0.7295,15.40278 -2.7485,22.35194 -3.1108,6.21532 -6.9962,9.28532 -14.6152,11.54792 -6.2502,1.85611 -22.5451,1.85995 -28.4836,0.007 z m -927.1733,-0.34887 c 0,-0.4581 5.23044,-19.9206 11.62319,-43.25 6.39276,-23.3294 12.58026,-46.01709 13.75,-50.41709 l 2.12681,-8 8.40702,-0.29298 c 4.62386,-0.16114 8.78046,0.0805 9.2369,0.5369 0.45643,0.45643 3.95811,12.28827 7.78151,26.29297 6.59224,24.14668 19.48296,70.44822 20.66153,74.21311 0.49635,1.58561 -0.38097,1.75 -9.33923,1.75 h -9.88705 l -2.36068,-10 -2.36068,-10 H 324.9389 312.29958 l -2.36068,10 -2.36068,10 h -9.81966 c -5.40081,0 -9.81966,-0.37481 -9.81966,-0.83291 z m 45.62703,-36.41709 c -0.33342,-1.2375 -2.25278,-9.45 -4.26524,-18.25 -2.01246,-8.8 -3.99535,-16.38072 -4.40643,-16.84603 -0.41109,-0.46532 -1.73392,3.58468 -2.93963,9 -1.20571,5.41531 -3.05249,13.39535 -4.10396,17.73341 -1.05148,4.33806 -1.91177,8.50056 -1.91177,9.25 0,1.05052 2.08814,1.36262 9.11663,1.36262 8.96724,0 9.1067,-0.0369 8.5104,-2.25 z M 367.9389,495.1556 v -51.53894 l 8.53418,0.28894 8.53417,0.28893 9.09446,19 c 5.00195,10.45 11.17407,23.59018 13.71583,29.20041 l 4.62136,10.20041 0.26488,-29.45041 0.26488,-29.45041 h 8.98512 8.98512 v 51.54206 51.54207 l -7.53469,-0.29207 -7.53469,-0.29206 -8.83469,-18.67879 c -4.85909,-10.27334 -11.55644,-24.22334 -14.883,-31 l -6.0483,-12.32121 -0.0823,31.25 -0.0823,31.25 h -9 -9 z m 71,51.17544 c 0,-0.19992 5.21478,-11.78742 11.5884,-25.75 l 11.58841,-25.38651 -1.50864,-4 c -0.82975,-2.2 -5.53582,-12.775 -10.45793,-23.5 -4.92211,-10.725 -9.26333,-20.5125 -9.64715,-21.75 -0.69306,-2.23452 -0.62582,-2.25 9.77412,-2.25 h 10.47199 l 6.29885,16.0387 6.29884,16.0387 6.1579,-15.7887 6.15791,-15.7887 10.13865,-0.28498 c 6.29118,-0.17684 10.13865,0.095 10.13865,0.71635 0,0.55073 -4.93292,11.9783 -10.96205,25.39459 l -10.96205,24.39327 10.92657,24.24092 c 6.00961,13.33251 11.20298,25.11181 11.54082,26.17624 0.58381,1.83944 0.10936,1.92115 -9.57687,1.64946 l -10.19111,-0.28585 -6.53541,-15.75 c -3.59448,-8.6625 -6.80643,-15.74345 -7.13766,-15.73544 -0.33123,0.008 -3.52724,7.20145 -7.10224,15.98544 l -6.5,15.97089 -10.25,0.0145 c -5.6375,0.008 -10.25,-0.14901 -10.25,-0.34893 z m 76,-51.13651 v -51.5 h 9.5 9.5 v 51.5 51.5 h -9.5 -9.5 z m 245,0 v -51.5 h 9.5 9.5 v 43.5 43.5 h 17 17 v 8 8 h -26.5 -26.5 z m 211,-0.0375 v -51.53752 l 9.24453,0.28752 9.24453,0.28753 8.83201,22.5 c 4.85763,12.375 9.87113,25.425 11.14103,29 2.2826,6.42546 2.3219,6.46772 3.4235,3.6849 0.6129,-1.5483 1.1144,-3.00213 1.1144,-3.23072 0,-0.45104 14.752,-38.64241 18.2333,-47.20418 l 2.1347,-5.25 h 8.816 8.816 v 51.5 51.5 h -9.0533 -9.0534 l 0.3034,-30.95147 c 0.1668,-17.02331 0.049,-30.63581 -0.263,-30.25 -0.3114,0.38581 -3.851,9.58897 -7.8657,20.45147 l -7.2994,19.75 h -6.7455 -6.7455 l -2.0539,-5.25 c -1.1296,-2.8875 -4.78019,-12.225 -8.1124,-20.75 l -6.05858,-15.5 -0.0264,31.25 -0.0263,31.24997 h -9 -9 z m 94,0.0375 v -51.5 h 27 27 v 8 8 h -17 -17 v 14 14 h 15.5 15.5 v 7 7 h -15.5 -15.5 v 14.5 14.5 h 17 17 v 8 8 h -27 -27 z m 63.3821,0.25 0.1179,-51.25 h 21.5 c 24.1234,0 26.7828,0.50891 33.2909,6.37069 5.4657,4.92286 7.8418,10.70924 8.4588,20.59915 0.7,11.22028 -1.4704,18.56178 -7.0969,24.00505 -2.2883,2.21381 -5.0384,4.51126 -6.1113,5.10544 -1.8582,1.02916 -1.5237,2.15412 7.0635,23.75 l 9.0141,22.66967 -10.5596,-0.0282 -10.5595,-0.0282 -7.9681,-21.4718 -7.9682,-21.4718 h -4.7818 -4.7819 v 21.5 21.5 h -9.8679 -9.8679 z m 36.4991,-7.85842 c 4.3135,-1.50371 6.1188,-5.4262 6.1188,-13.29487 0,-11.73348 -3.0307,-14.59671 -15.4503,-14.59671 h -7.5497 v 14.5 14.5 h 6.8508 c 3.7679,0 8.2816,-0.49879 10.0304,-1.10842 z"
       id="path1" />
  </g>
</svg>
