<?xml version="1.0" encoding="UTF-8" standalone="no"?>
<!-- Created with Inkscape (http://www.inkscape.org/) -->

<svg
   width="42.985252mm"
   height="34.951458mm"
   viewBox="0 0 42.985252 34.951458"
   version="1.1"
   id="svg1"
   xml:space="preserve"
   xmlns="http://www.w3.org/2000/svg"
   xmlns:svg="http://www.w3.org/2000/svg"><defs
     id="defs1" /><g
     id="layer1"
     transform="translate(-83.070633,-131.38368)"><path
       style="fill:#ff8a3d;fill-opacity:1;stroke-width:3.556"
       d="m 83.070633,151.1955 v -19.81182 h 19.724927 c 0,0 0.0872,11.93972 0,19.11667 -0.0727,5.98635 -3.068339,11.26877 -10.340379,14.68508 -9.427214,4.42878 6.341557,-4.71503 4.17091,-14.16372 -13.555459,0.0869 -0.08689,-0.0869 -13.555458,0.17379 z"
       id="path1" /><path
       style="fill:#ff8a3d;fill-opacity:1;stroke-width:3.556"
       d="m 106.2922,151.1955 v -19.81182 h 19.72493 c 0,0 0.0872,11.93972 0,19.11667 -0.0727,5.98635 -3.06834,11.26877 -10.34039,14.68508 -9.42721,4.42878 6.34156,-4.71503 4.17092,-14.16372 -13.55546,0.0869 -0.0869,-0.0869 -13.55546,0.17379 z"
       id="path1-7" /></g></svg>
